<?xml version="1.0" encoding="UTF-8" standalone="no"?>
<!-- Created with Inkscape (http://www.inkscape.org/) -->

<svg
   width="80mm"
   height="80mm"
   viewBox="0 0 80 80"
   version="1.1"
   id="svg5"
   xmlns="http://www.w3.org/2000/svg"
   xmlns:svg="http://www.w3.org/2000/svg">
  <defs id="defs2" />
  <rect width="100%" height="100%" fill="white" />
  <g
     id="layer1"
     transform="translate(40,80)">
    <path
       style="fill:none;stroke:#000000;stroke-width:0.399996;stroke-linejoin:bevel;stroke-miterlimit:4;stroke-dasharray:none"
       d="M 0,0 C 0,0 4,-1 2,-6"
       id="path1848" />
    <path
       style="fill:none;stroke:#000000;stroke-width:0.399996;stroke-linejoin:bevel;stroke-miterlimit:4;stroke-dasharray:none"
       d="M 2,-6 C 2,-6 5,-2 8,-6"
       id="path1850" />
    <path
       style="fill:none;stroke:#000000;stroke-width:0.399996;stroke-linejoin:bevel;stroke-miterlimit:4;stroke-dasharray:none"
       d="M 8,-6 C 5,-6 5,-10 3,-10"
       id="path1852" />
    <path
       style="fill:none;stroke:#000000;stroke-width:0.399996;stroke-linejoin:bevel;stroke-miterlimit:4;stroke-dasharray:none"
       d="M 3,-10 C 6,-10 9,-15 5,-19"
       id="path1854" />
    <path
       style="fill:none;stroke:#000000;stroke-width:0.399996;stroke-linejoin:bevel;stroke-miterlimit:4;stroke-dasharray:none"
       d="M 5,-19 C 9,-17 13,-16 16,-21"
       id="path1856" />
    <path
       style="fill:none;stroke:#000000;stroke-width:0.399996;stroke-linejoin:bevel;stroke-miterlimit:4;stroke-dasharray:none"
       d="M 16,-21 C 10,-17 5,-26 2,-26"
       id="path1858" />
    <path
       style="fill:none;stroke:#000000;stroke-width:0.399996;stroke-linejoin:bevel;stroke-miterlimit:4;stroke-dasharray:none"
       d="M 2,-31 H 8"
       id="path1860" />
    <path
       style="fill:none;stroke:#000000;stroke-width:0.399996;stroke-linejoin:bevel;stroke-miterlimit:4;stroke-dasharray:none"
       d="M 2,-26 C 5,-26 5,-31 2,-31"
       id="path1862" />
    <path
       style="fill:none;stroke:#000000;stroke-width:0.399996;stroke-linejoin:bevel;stroke-miterlimit:4;stroke-dasharray:none"
       d="M 8,-31 C 5,-30 6,-25 10,-25"
       id="path1864" />
    <path
       style="fill:none;stroke:#000000;stroke-width:0.399996;stroke-linejoin:bevel;stroke-miterlimit:4;stroke-dasharray:none"
       d="M 40,-72.998 C 5,-69.998 40,-40 14,-32"
       id="path1866" />
    <path
       style="fill:none;stroke:#000000;stroke-width:0.399996;stroke-linejoin:bevel;stroke-miterlimit:4;stroke-dasharray:none"
       d="M 4,-39 C 4,-39 5,-43 1,-43"
       id="path1870" />
    <path
       style="fill:none;stroke:#000000;stroke-width:0.399996;stroke-linejoin:bevel;stroke-miterlimit:4;stroke-dasharray:none"
       d="M 1,-43 C 10,-43 1,-69.998 1,-69.998"
       id="path1872" />
    <path
       style="fill:none;stroke:#000000;stroke-width:0.399996;stroke-linejoin:bevel;stroke-miterlimit:4;stroke-dasharray:none"
       d="M 1,-69.998 C 7,-72.998 0,-75.998 0,-79.998"
       id="path1876" />
    <path
       style="fill:none;stroke:#000000;stroke-width:0.399996;stroke-linejoin:bevel;stroke-miterlimit:4;stroke-dasharray:none"
       d="M 14,-32 C 15,-30 15,-25 9.85,-25"
       id="path1878" />
    <path
       style="fill:none;stroke:#000000;stroke-width:0.399996;stroke-linejoin:bevel;stroke-miterlimit:4;stroke-dasharray:none"
       d="M 40,-72.998 C 0,-79.998 29,-34 4,-39"
       id="path1882" />
    <path
       style="fill:none;stroke:#000000;stroke-width:0.399996;stroke-linejoin:bevel;stroke-miterlimit:4;stroke-dasharray:none"
       d="M -1,-43 C -10,-43 -1,-69.998 -1,-69.998"
       id="path1884" />
    <path
       style="fill:none;stroke:#000000;stroke-width:0.399996;stroke-linejoin:bevel;stroke-miterlimit:4;stroke-dasharray:none"
       d="M -1,-69.998 C -7,-72.998 0,-75.998 0,-79.998"
       id="path1886" />
    <path
       style="fill:none;stroke:#000000;stroke-width:0.399996;stroke-linejoin:bevel;stroke-miterlimit:4;stroke-dasharray:none"
       d="M -4,-39 C -4,-39 -5,-43 -1,-43"
       id="path1888" />
    <path
       style="fill:none;stroke:#000000;stroke-width:0.399996;stroke-linejoin:bevel;stroke-miterlimit:4;stroke-dasharray:none"
       d="M 0,0 C 0,0 -4,-1 -2,-6"
       id="path1890" />
    <path
       style="fill:none;stroke:#000000;stroke-width:0.399996;stroke-linejoin:bevel;stroke-miterlimit:4;stroke-dasharray:none"
       d="M -2,-6 C -2,-6 -5,-2 -8,-6"
       id="path1892" />
    <path
       style="fill:none;stroke:#000000;stroke-width:0.399996;stroke-linejoin:bevel;stroke-miterlimit:4;stroke-dasharray:none"
       d="M -8,-31 C -5,-30 -6,-25 -10,-25"
       id="path1894" />
    <path
       style="fill:none;stroke:#000000;stroke-width:0.399996;stroke-linejoin:bevel;stroke-miterlimit:4;stroke-dasharray:none"
       d="M -14,-32 C -15,-30 -15,-25 -9.853,-25"
       id="path1898" />
    <path
       style="fill:none;stroke:#000000;stroke-width:0.399996;stroke-linejoin:bevel;stroke-miterlimit:4;stroke-dasharray:none"
       d="M -8,-6 C -5,-6 -5,-10 -3,-10"
       id="path1900" />
    <path
       style="fill:none;stroke:#000000;stroke-width:0.399996;stroke-linejoin:bevel;stroke-miterlimit:4;stroke-dasharray:none"
       d="M -3,-10 C -6,-10 -9,-15 -5,-19"
       id="path1902" />
    <path
       style="fill:none;stroke:#000000;stroke-width:0.399996;stroke-linejoin:bevel;stroke-miterlimit:4;stroke-dasharray:none"
       d="M -5,-19 C -9,-17 -13,-16 -16,-21"
       id="path1904" />
    <path
       style="fill:none;stroke:#000000;stroke-width:0.399996;stroke-linejoin:bevel;stroke-miterlimit:4;stroke-dasharray:none"
       d="M -16,-21 C -10,-17 -5,-26 -2,-26"
       id="path1906" />
    <path
       style="fill:none;stroke:#000000;stroke-width:0.399996;stroke-linejoin:bevel;stroke-miterlimit:4;stroke-dasharray:none"
       d="M -2,-26 C -5,-26 -5,-31 -2,-31"
       id="path1908" />
    <path
       style="fill:none;stroke:#000000;stroke-width:0.399996;stroke-linejoin:bevel;stroke-miterlimit:4;stroke-dasharray:none"
       d="M -8,-31 H -2"
       id="path1910" />
    <path
       style="fill:none;stroke:#000000;stroke-width:0.399996;stroke-linejoin:bevel;stroke-miterlimit:4;stroke-dasharray:none"
       d="M -40,-72.998 C -5,-69.998 -40,-40 -14,-32"
       id="path1912" />
    <path
       style="fill:none;stroke:#000000;stroke-width:0.399996;stroke-linejoin:bevel;stroke-miterlimit:4;stroke-dasharray:none"
       d="M -40,-72.998 C 0,-79.998 -29,-34 -4,-39"
       id="path1916" />
  </g>
</svg>
