<?xml version="1.0" encoding="UTF-8" standalone="no"?>
<!-- Created with Inkscape (http://www.inkscape.org/) -->

<svg
   width="210mm"
   height="297mm"
   viewBox="0 0 210 297"
   version="1.1"
   id="svg5"
   inkscape:version="1.1.2 (b8e25be833, 2022-02-05)"
   sodipodi:docname="weapon-trident-01.svg"
   xmlns:inkscape="http://www.inkscape.org/namespaces/inkscape"
   xmlns:sodipodi="http://sodipodi.sourceforge.net/DTD/sodipodi-0.dtd"
   xmlns="http://www.w3.org/2000/svg"
   xmlns:svg="http://www.w3.org/2000/svg">
  <sodipodi:namedview
     id="namedview7"
     pagecolor="#ffffff"
     bordercolor="#111111"
     borderopacity="1"
     inkscape:pageshadow="0"
     inkscape:pageopacity="0"
     inkscape:pagecheckerboard="false"
     inkscape:document-units="mm"
     showgrid="true"
     inkscape:zoom="2.2988"
     inkscape:cx="31.538"
     inkscape:cy="-184.88"
     inkscape:window-width="1920"
     inkscape:window-height="1009"
     inkscape:window-x="-8"
     inkscape:window-y="-8"
     inkscape:window-maximized="1"
     inkscape:current-layer="layer1"
     inkscape:snap-grids="true"
     units="mm">
    <inkscape:grid
       type="xygrid"
       id="grid832"
       units="mm"
       empspacing="10"
       spacingx="1"
       spacingy="1" />
  </sodipodi:namedview>
  <defs
     id="defs2" />
  <g
     inkscape:label="Layer 1"
     inkscape:groupmode="layer"
     id="layer1">
    <path
       style="fill:none;stroke:#1a5fb4;stroke-width:0.199997;stroke-linejoin:bevel"
       d="M 0,0 C 0,0 4,-1 2,-6"
       id="path3860"
       sodipodi:nodetypes="cc" />
    <path
       style="fill:none;stroke:#26a269;stroke-width:0.199997;stroke-linejoin:bevel"
       d="M 2,-6 C 2,-6 4.9999,-2 7.9999,-6"
       id="path8980"
       sodipodi:nodetypes="cc" />
    <path
       style="fill:none;stroke:#a51d2d;stroke-width:0.199997;stroke-linejoin:bevel"
       d="M 7.9999,-6 C 4.9999,-6 4.9999,-10 3,-10"
       id="path8982"
       sodipodi:nodetypes="cc" />
    <path
       style="fill:none;stroke:#26a269;stroke-width:0.199997;stroke-linejoin:bevel"
       d="M 3,-10 C 5.9999,-10 8.9999,-15 4.9999,-19"
       id="path8984"
       sodipodi:nodetypes="cc" />
    <path
       style="fill:none;stroke:#a51d2d;stroke-width:0.199997;stroke-linejoin:bevel"
       d="M 4.9999,-19 C 8.9999,-17 12.999,-16 15.999,-21"
       id="path8986"
       sodipodi:nodetypes="cc" />
    <path
       style="fill:none;stroke:#26a269;stroke-width:0.199997;stroke-linejoin:bevel"
       d="M 15.999,-21 C 9.9999,-17 4.9999,-26 2,-26"
       id="path8988"
       sodipodi:nodetypes="cc" />
    <path
       style="fill:none;stroke:#a51d2d;stroke-width:0.199997;stroke-linejoin:bevel"
       d="M 2,-31 H 7.9999"
       id="path8990"
       sodipodi:nodetypes="cc" />
    <path
       style="fill:none;stroke:#1a5fb4;stroke-width:0.199997;stroke-linejoin:bevel"
       d="M 2,-26 C 4.9999,-26 4.9999,-31 2,-31"
       id="path8992"
       sodipodi:nodetypes="cc" />
    <path
       style="fill:none;stroke:#26a269;stroke-width:0.199997;stroke-linejoin:bevel"
       d="M 7.9999,-31 C 4.9999,-30 5.9999,-25 9.9999,-25"
       id="path8994"
       sodipodi:nodetypes="cc" />
    <path
       style="fill:none;stroke:#26a269;stroke-width:0.199997;stroke-linejoin:bevel"
       d="M 39.999,-72.999 C 4.9999,-69.999 39.999,-40 13.999,-32"
       id="path8996"
       sodipodi:nodetypes="cc" />
    <path
       style="fill:none;stroke:#a51d2d;stroke-width:0.199997;stroke-linejoin:bevel"
       d="M 8.9999,-35 C 8.9999,-35 11.999,-35 13.999,-32"
       id="path9000"
       sodipodi:nodetypes="cc" />
    <path
       style="fill:none;stroke:#a51d2d;stroke-width:0.199997;stroke-linejoin:bevel"
       d="M 4,-39 C 4,-39 4.9999,-43 0.99999,-43"
       id="path9012"
       sodipodi:nodetypes="cc" />
    <path
       style="fill:none;stroke:#26a269;stroke-width:0.199997;stroke-linejoin:bevel"
       d="M 0.99999,-43 C 9.9999,-43 0.99999,-69.999 0.99999,-69.999"
       id="path9014"
       sodipodi:nodetypes="cc" />
    <path
       style="fill:none;stroke:#1a5fb4;stroke-width:0.199997;stroke-linejoin:bevel"
       d="M 0,-44 C 6.9999,-44 0,-67 0,-67"
       id="path9016"
       sodipodi:nodetypes="cc" />
    <path
       style="fill:none;stroke:#1a5fb4;stroke-width:0.199997;stroke-linejoin:bevel"
       d="M 0.99999,-69.999 C 6.9999,-72.999 0,-75.999 0,-79.999"
       id="path9018"
       sodipodi:nodetypes="cc" />
    <path
       style="fill:none;stroke:#1a5fb4;stroke-width:0.199997;stroke-linejoin:bevel"
       d="M 13.999,-32 C 14.999,-30 14.999,-25 9.8529,-25"
       id="path14176"
       sodipodi:nodetypes="cc" />
    <path
       style="fill:none;stroke:#1a5fb4;stroke-width:0.199997;stroke-linejoin:bevel"
       d="M 39.999,-72.999 C 2,-74.999 32.999,-35 8.9999,-35"
       id="path14509"
       sodipodi:nodetypes="cc" />
    <path
       style="fill:none;stroke:#26a269;stroke-width:0.199997;stroke-linejoin:bevel"
       d="M 39.999,-72.999 C 0,-79.999 28.999,-34 4,-39"
       id="path14666"
       sodipodi:nodetypes="cc" />
    <path
       style="fill:none;stroke:#26a269;stroke-width:0.199997;stroke-linejoin:bevel"
       d="M -1,-43 C -9.9996,-43 -1,-69.999 -1,-69.999"
       id="path16016"
       sodipodi:nodetypes="cc" />
    <path
       style="fill:none;stroke:#a51d2d;stroke-width:0.199997;stroke-linejoin:bevel"
       d="M -1,-69.999 C -6.9999,-72.999 0,-75.999 0,-79.999"
       id="path16018"
       sodipodi:nodetypes="cc" />
    <path
       style="fill:none;stroke:#a51d2d;stroke-width:0.199997;stroke-linejoin:bevel"
       d="M -4,-39 C -4,-39 -5,-43 -1,-43"
       id="path16040"
       sodipodi:nodetypes="cc" />
    <path
       style="fill:none;stroke:#a51d2d;stroke-width:0.199997;stroke-linejoin:bevel"
       d="M 0,0 C 0,0 -4,-1 -2,-6"
       id="path16060"
       sodipodi:nodetypes="cc" />
    <path
       style="fill:none;stroke:#26a269;stroke-width:0.199997;stroke-linejoin:bevel"
       d="M -2,-6 C -2,-6 -5,-2 -7.9999,-6"
       id="path16062"
       sodipodi:nodetypes="cc" />
    <path
       style="fill:none;stroke:#26a269;stroke-width:0.199997;stroke-linejoin:bevel"
       d="M -7.9999,-31 C -5,-30 -5.9999,-25 -9.9996,-25"
       id="path16204"
       sodipodi:nodetypes="cc" />
    <path
       style="fill:none;stroke:#a51d2d;stroke-width:0.199997;stroke-linejoin:bevel"
       d="M -8.9999,-35 C -8.9999,-35 -12,-35 -14,-32"
       id="path16206"
       sodipodi:nodetypes="cc" />
    <path
       style="fill:none;stroke:#1a5fb4;stroke-width:0.199997;stroke-linejoin:bevel"
       d="M -14,-32 C -15,-30 -15,-25 -9.8529,-25"
       id="path16208"
       sodipodi:nodetypes="cc" />
    <path
       style="fill:none;stroke:#a51d2d;stroke-width:0.199997;stroke-linejoin:bevel"
       d="M -7.9999,-6 C -5,-6 -5,-10 -3,-10"
       id="path18291"
       sodipodi:nodetypes="cc" />
    <path
       style="fill:none;stroke:#26a269;stroke-width:0.199997;stroke-linejoin:bevel"
       d="M -3,-10 C -5.9999,-10 -8.9999,-15 -5,-19"
       id="path18293"
       sodipodi:nodetypes="cc" />
    <path
       style="fill:none;stroke:#a51d2d;stroke-width:0.199997;stroke-linejoin:bevel"
       d="M -5,-19 C -8.9999,-17 -13,-16 -16,-21"
       id="path18295"
       sodipodi:nodetypes="cc" />
    <path
       style="fill:none;stroke:#26a269;stroke-width:0.199997;stroke-linejoin:bevel"
       d="M -16,-21 C -9.9996,-17 -5,-26 -2,-26"
       id="path18377"
       sodipodi:nodetypes="cc" />
    <path
       style="fill:none;stroke:#1a5fb4;stroke-width:0.199997;stroke-linejoin:bevel"
       d="M -2,-26 C -5,-26 -5,-31 -2,-31"
       id="path18459"
       sodipodi:nodetypes="cc" />
    <path
       style="fill:none;stroke:#a51d2d;stroke-width:0.199997;stroke-linejoin:bevel"
       d="M -7.9999,-31 H -2"
       id="path18461"
       sodipodi:nodetypes="cc" />
    <path
       style="fill:none;stroke:#26a269;stroke-width:0.199997;stroke-linejoin:bevel"
       d="M -40,-72.999 C -5,-69.999 -40,-40 -14,-32"
       id="path18463"
       sodipodi:nodetypes="cc" />
    <path
       style="fill:none;stroke:#1a5fb4;stroke-width:0.199997;stroke-linejoin:bevel"
       d="M -40,-72.999 C -2,-73.999 -33,-35 -8.9999,-35"
       id="path18465"
       sodipodi:nodetypes="cc" />
    <path
       style="fill:none;stroke:#26a269;stroke-width:0.199997;stroke-linejoin:bevel"
       d="M -40,-72.999 C 0,-79.999 -29,-34 -4,-39"
       id="path18467"
       sodipodi:nodetypes="cc" />
    <path
       style="fill:none;stroke:#c01c28;stroke-width:0.199997;stroke-linejoin:bevel"
       d="M 0,-44 C -6.9999,-44 0,-67 0,-67"
       id="path19276"
       sodipodi:nodetypes="cc" />
  </g>
</svg>
